<svg width="40" height="41" viewBox="0 0 40 41" fill="none" xmlns="http://www.w3.org/2000/svg">
<path d="M10.5298 13.8183C10.6864 13.9789 10.8104 14.1694 10.8949 14.379C10.9794 14.5886 11.0227 14.8131 11.0222 15.0398C11.0218 15.2665 10.9777 15.4909 10.8925 15.7002C10.8072 15.9094 10.6824 16.0995 10.5253 16.2594L7.77344 19.0641H16.0629C16.5104 19.0641 16.9397 19.2459 17.2562 19.5695C17.5726 19.8931 17.7504 20.332 17.7504 20.7896C17.7504 21.2473 17.5726 21.6862 17.2562 22.0098C16.9397 22.3334 16.5104 22.5152 16.0629 22.5152H7.75993L10.5051 25.3222C10.6709 25.4801 10.8039 25.6706 10.8961 25.8823C10.9883 26.094 11.0379 26.3225 11.0419 26.5542C11.0459 26.7859 11.0042 27.016 10.9194 27.2309C10.8345 27.4457 10.7082 27.6409 10.5479 27.8048C10.3877 27.9686 10.1968 28.0978 9.98664 28.1846C9.77651 28.2714 9.55143 28.314 9.32484 28.3099C9.09825 28.3058 8.87478 28.2551 8.66777 28.1608C8.46076 28.0665 8.27445 27.9305 8.11995 27.761L2.49466 22.0091C2.33784 21.8488 2.21344 21.6585 2.12856 21.4491C2.04369 21.2397 2 21.0152 2 20.7885C2 20.5618 2.04369 20.3373 2.12856 20.1279C2.21344 19.9185 2.33784 19.7282 2.49466 19.5679L8.14245 13.816C8.29947 13.656 8.48579 13.5291 8.69077 13.4427C8.89575 13.3563 9.11537 13.3121 9.33707 13.3125C9.55878 13.3129 9.77823 13.358 9.98289 13.4452C10.1875 13.5324 10.3734 13.66 10.5298 13.8206M29.496 13.8206C29.8125 13.4975 30.2414 13.316 30.6886 13.316C31.1358 13.316 31.5647 13.4975 31.8812 13.8206L37.5065 19.5725C37.8225 19.8961 38 20.3347 38 20.7919C38 21.2492 37.8225 21.6878 37.5065 22.0114L31.8812 27.7633C31.7267 27.9328 31.5404 28.0688 31.3334 28.1631C31.1263 28.2574 30.9029 28.3081 30.6763 28.3122C30.4497 28.3163 30.2246 28.2737 30.0145 28.1869C29.8043 28.1001 29.6135 27.9709 29.4532 27.8071C29.293 27.6432 29.1666 27.448 29.0818 27.2332C28.9969 27.0183 28.9552 26.7882 28.9592 26.5565C28.9632 26.3248 29.0128 26.0963 29.105 25.8846C29.1973 25.673 29.3302 25.4824 29.496 25.3245L32.2412 22.5175H23.9383C23.4907 22.5175 23.0614 22.3357 22.745 22.0121C22.4285 21.6885 22.2507 21.2496 22.2507 20.7919C22.2507 20.3343 22.4285 19.8954 22.745 19.5718C23.0614 19.2482 23.4907 19.0664 23.9383 19.0664H32.2412L29.496 16.2594C29.18 15.9359 29.0025 15.4973 29.0025 15.04C29.0025 14.5827 29.18 14.1442 29.496 13.8206Z" fill="white"/>
</svg>
