<svg width="12" height="12" viewBox="0 0 12 12" fill="none" xmlns="http://www.w3.org/2000/svg">
<g clip-path="url(#clip0_0_6963)">
<path fill-rule="evenodd" clip-rule="evenodd" d="M0.0418779 5.29284C0.229424 3.71263 1.03703 2.27165 2.28702 1.28689C3.53701 0.302125 5.127 -0.145745 6.70721 0.0418013C8.28741 0.229348 9.7284 1.03695 10.7132 2.28694C11.6979 3.53693 12.1458 5.12692 11.9582 6.70713C11.7707 8.28734 10.9631 9.72832 9.71311 10.7131C8.46311 11.6978 6.87312 12.1457 5.29292 11.9582C3.71271 11.7706 2.27172 10.963 1.28696 9.71303C0.302201 8.46304 -0.145669 6.87305 0.0418779 5.29284ZM5.64649 8.97908L9.32464 4.52549L8.14109 3.23304L5.60676 6.40865L3.75822 4.52549L2.71155 6.06503L5.64649 8.97908Z" fill="url(#paint0_linear_0_6963)"/>
</g>
<defs>
<linearGradient id="paint0_linear_0_6963" x1="0.678309" y1="-0.0695261" x2="13.4827" y2="2.83816" gradientUnits="userSpaceOnUse">
<stop stop-color="#3BC52C"/>
<stop offset="1" stop-color="#88C74D"/>
</linearGradient>
<clipPath id="clip0_0_6963">
<rect width="12" height="12" fill="white"/>
</clipPath>
</defs>
</svg>
