<svg width="20" height="21" viewBox="0 0 20 21" fill="none" xmlns="http://www.w3.org/2000/svg">
<path d="M16.2503 3.11923C15.9712 2.96382 15.6642 2.86501 15.347 2.82845C15.0297 2.7919 14.7084 2.81831 14.4013 2.90619C14.0943 2.99406 13.8075 3.14167 13.5574 3.34059C13.3073 3.53951 13.0988 3.78584 12.9437 4.06552L8.43006 12.2033L5.84682 9.61534C5.62254 9.3827 5.35427 9.19714 5.05764 9.06949C4.76101 8.94184 4.44198 8.87464 4.11916 8.87183C3.79633 8.86902 3.47618 8.93065 3.17739 9.05312C2.87859 9.17559 2.60713 9.35645 2.37885 9.58515C2.15057 9.81385 1.97004 10.0858 1.8478 10.3851C1.72555 10.6845 1.66403 11.0052 1.66684 11.3286C1.66965 11.6521 1.73672 11.9717 1.86414 12.2688C1.99156 12.566 2.17678 12.8348 2.40899 13.0595L7.27156 17.9309C7.73107 18.3925 8.35104 18.6458 8.99047 18.6458L9.3272 18.6215C9.69986 18.5693 10.0553 18.4311 10.3656 18.2178C10.6759 18.0046 10.9326 17.7221 11.1154 17.3926L17.1936 6.43184C17.3488 6.15228 17.4475 5.84483 17.4841 5.52706C17.5207 5.20928 17.4944 4.8874 17.4068 4.5798C17.3192 4.27219 17.172 3.98488 16.9735 3.73428C16.7751 3.48367 16.5293 3.27468 16.2503 3.11923Z" fill="white"/>
</svg>
