<svg width="16" height="16" viewBox="0 0 16 16" fill="none" xmlns="http://www.w3.org/2000/svg">
<path fill-rule="evenodd" clip-rule="evenodd" d="M8.1052 10.122L13.4082 15.425C13.6896 15.7064 14.0712 15.8645 14.4692 15.8645C14.8671 15.8645 15.2488 15.7064 15.5302 15.425C15.8116 15.1436 15.9697 14.762 15.9697 14.364C15.9697 13.966 15.8116 13.5844 15.5302 13.303L10.2252 8L15.5292 2.697C15.6685 2.55767 15.7789 2.39227 15.8543 2.21025C15.9296 2.02822 15.9684 1.83315 15.9683 1.63615C15.9683 1.43915 15.9294 1.24408 15.854 1.0621C15.7786 0.880113 15.668 0.714766 15.5287 0.5755C15.3894 0.436233 15.224 0.325773 15.0419 0.250428C14.8599 0.175082 14.6648 0.136326 14.4678 0.136373C14.2708 0.136419 14.0758 0.175267 13.8938 0.250698C13.7118 0.326129 13.5465 0.436667 13.4072 0.576L8.1052 5.879L2.8022 0.576C2.66389 0.432671 2.49843 0.318321 2.31546 0.239622C2.13249 0.160923 1.93568 0.119452 1.73651 0.117628C1.53735 0.115804 1.33981 0.153664 1.15543 0.228998C0.971053 0.304333 0.803523 0.415633 0.662618 0.556405C0.521713 0.697177 0.410255 0.864602 0.334747 1.04891C0.259239 1.23322 0.221193 1.43072 0.222829 1.62989C0.224465 1.82906 0.26575 2.02591 0.344277 2.20895C0.422803 2.39199 0.536996 2.55756 0.680195 2.696L5.9852 8L0.681195 13.304C0.537997 13.4424 0.423803 13.608 0.345277 13.7911C0.266751 13.9741 0.225465 14.1709 0.223829 14.3701C0.222193 14.5693 0.260239 14.7668 0.335747 14.9511C0.411255 15.1354 0.522713 15.3028 0.663618 15.4436C0.804523 15.5844 0.972053 15.6957 1.15643 15.771C1.34081 15.8463 1.53835 15.8842 1.73751 15.8824C1.93668 15.8805 2.13349 15.8391 2.31646 15.7604C2.49943 15.6817 2.66489 15.5673 2.80319 15.424L8.1052 10.122Z" fill="white"/>
</svg>
