<svg width="12" height="12" viewBox="0 0 12 12" fill="none" xmlns="http://www.w3.org/2000/svg">
<g clip-path="url(#clip0_0_2320)">
<path fill-rule="evenodd" clip-rule="evenodd" d="M6.93889 11.5V8.99798H5.06111V11.5H2.87037C2.70436 11.5 2.54515 11.4341 2.42777 11.3168C2.31039 11.1995 2.24444 11.0404 2.24444 10.8745V7.12146H0.625793C0.502016 7.12144 0.381026 7.08474 0.278117 7.01601C0.175208 6.94727 0.0950026 6.84959 0.0476387 6.73531C0.000274751 6.62103 -0.0121205 6.49528 0.01202 6.37397C0.0361604 6.25265 0.0957527 6.1412 0.183263 6.05373L5.55747 0.683139C5.67485 0.565875 5.83403 0.5 6 0.5C6.16597 0.5 6.32515 0.565875 6.44253 0.683139L11.8167 6.05373C11.9042 6.1412 11.9638 6.25265 11.988 6.37397C12.0121 6.49528 11.9997 6.62103 11.9524 6.73531C11.905 6.84959 11.8248 6.94727 11.7219 7.01601C11.619 7.08474 11.498 7.12144 11.3742 7.12146H9.75556V10.8745C9.75556 11.0404 9.68962 11.1995 9.57223 11.3168C9.45485 11.4341 9.29564 11.5 9.12963 11.5H6.93889Z" fill="url(#paint0_linear_0_2320)"/>
</g>
<defs>
<linearGradient id="paint0_linear_0_2320" x1="-1.43051e-08" y1="1.05" x2="13.0305" y2="2.55049" gradientUnits="userSpaceOnUse">
<stop stop-color="#3BC52C"/>
<stop offset="1" stop-color="#88C74D"/>
</linearGradient>
<clipPath id="clip0_0_2320">
<rect width="12" height="12" fill="white"/>
</clipPath>
</defs>
</svg>
