<svg width="30" height="30" viewBox="0 0 30 30" fill="none" xmlns="http://www.w3.org/2000/svg">
<path d="M3 24.561H27V27H3V24.561ZM9 8.09756C9 6.48039 9.63214 4.92945 10.7574 3.78593C11.8826 2.64242 13.4087 2 15 2C16.5913 2 18.1174 2.64242 19.2426 3.78593C20.3679 4.92945 21 6.48039 21 8.09756C21 10.0122 20.13 12.1183 18.7836 13.5707C18.5876 13.7821 18.4248 14.0069 18.2952 14.2451C17.9796 14.8378 18.5376 15.4146 19.2 15.4146H24.6C25.2365 15.4146 25.847 15.6716 26.2971 16.129C26.7471 16.5864 27 17.2068 27 17.8537V23.3415H3V17.8537C3 17.2068 3.25286 16.5864 3.70294 16.129C4.15303 15.6716 4.76348 15.4146 5.4 15.4146H10.8C11.4624 15.4146 12.0204 14.8378 11.7048 14.2451C11.5709 14.0001 11.4068 13.7735 11.2164 13.5707C9.87 12.1195 9 10.0122 9 8.09756Z" fill="white"/>
</svg>
