<svg width="40" height="41" viewBox="0 0 40 41" fill="none" xmlns="http://www.w3.org/2000/svg">
<g clip-path="url(#clip0_1_2899)">
<path d="M9.48999 13.2902C9.64812 15.1818 10.0112 17.773 10.8329 20.4937C12.5779 26.2715 15.6605 30.3798 20 32.7145C24.3394 30.3798 27.4221 26.2715 29.167 20.4937C29.9887 17.7732 30.3517 15.182 30.51 13.2902L20 8.03516L9.48999 13.2902Z" fill="white"/>
<path d="M37.6449 9.66074C37.6341 9.45375 37.5686 9.25332 37.4551 9.0799C37.3416 8.90647 37.1841 8.76626 36.9987 8.67355L20.5241 0.43621C20.3614 0.354855 20.182 0.3125 20.0001 0.3125C19.8181 0.3125 19.6387 0.354855 19.476 0.43621L3.00139 8.67355C2.81601 8.76626 2.65852 8.90647 2.54501 9.0799C2.43149 9.25332 2.366 9.45375 2.35522 9.66074C2.34272 9.90059 2.07178 15.6114 4.01718 22.2416C5.16827 26.1646 6.86139 29.5909 9.04952 32.4255C11.8069 35.9975 15.351 38.6253 19.5833 40.2359C19.8518 40.3379 20.1484 40.3379 20.4169 40.2359C24.6491 38.6254 28.1932 35.9975 30.9506 32.4255C33.1387 29.5909 34.8319 26.1645 35.983 22.2416C37.9283 15.6114 37.6574 9.90059 37.6449 9.66074ZM20.5194 35.0837C20.3579 35.1636 20.1802 35.2051 20.0001 35.2051C19.8199 35.2051 19.6422 35.1636 19.4807 35.0837C14.2626 32.5037 10.5982 27.8229 8.58944 21.1715C7.58475 17.8447 7.22202 14.7099 7.09468 12.666C7.08038 12.4364 7.13396 12.2077 7.24876 12.0083C7.36355 11.809 7.53447 11.6478 7.74022 11.545L19.4761 5.67707C19.6388 5.59571 19.8182 5.55336 20.0001 5.55336C20.1821 5.55336 20.3615 5.59571 20.5242 5.67707L32.2601 11.545C32.4659 11.6478 32.6368 11.809 32.7516 12.0084C32.8664 12.2077 32.92 12.4365 32.9057 12.6661C32.7783 14.7101 32.4155 17.845 31.4108 21.1715C29.4019 27.8229 25.7376 32.5036 20.5194 35.0837Z" fill="white"/>
</g>
<defs>
<clipPath id="clip0_1_2899">
<rect width="40" height="40" fill="white" transform="translate(0 0.3125)"/>
</clipPath>
</defs>
</svg>
