<svg width="40" height="41" viewBox="0 0 40 41" fill="none" xmlns="http://www.w3.org/2000/svg">
<path d="M36.5023 34.409L5.9017 3.81032C5.74386 3.65249 5.55648 3.5273 5.35025 3.44188C5.14402 3.35646 4.92299 3.3125 4.69977 3.3125C4.47656 3.3125 4.25553 3.35646 4.0493 3.44188C3.84307 3.5273 3.65569 3.65249 3.49785 3.81032C3.17908 4.12907 3 4.56139 3 5.01217C3 5.46295 3.17908 5.89527 3.49785 6.21402L10.3439 13.0596C10.0056 13.6359 9.79987 14.3686 9.79987 15.2117V25.4113C9.79987 27.2863 11.3248 28.8111 13.1999 28.8111H19.2962L27.2983 36.8127C27.536 37.0503 27.8389 37.2122 28.1686 37.2777C28.4984 37.3433 28.8401 37.3096 29.1507 37.181C29.4613 37.0524 29.7268 36.8345 29.9136 36.5551C30.1004 36.2756 30.2002 35.947 30.2002 35.6108V32.9147L34.0984 36.8127C34.2559 36.9711 34.4432 37.0968 34.6495 37.1826C34.8557 37.2683 35.0769 37.3125 35.3003 37.3125C35.5237 37.3125 35.7449 37.2683 35.9512 37.1826C36.1575 37.0968 36.3447 36.9711 36.5023 36.8127C36.821 36.4939 37 36.0616 37 35.6108C37 35.1601 36.821 34.7278 36.5023 34.409ZM30.2002 5.01217V23.7113L18.3 11.8119H19.303L27.2932 3.80522C27.7862 3.32924 28.5172 3.17625 29.1462 3.44824C29.7922 3.70323 30.2002 4.3322 30.2002 5.01217Z" fill="white"/>
</svg>
