<svg width="40" height="41" viewBox="0 0 40 41" fill="none" xmlns="http://www.w3.org/2000/svg">
<path d="M29.2302 19.7244H34.1165C34.335 19.7244 34.5492 19.7852 34.735 19.9001C34.9208 20.0149 35.071 20.1792 35.1687 20.3746L39.8742 29.7857C40.2653 30.5678 39.6965 31.4882 38.822 31.4882H1.17788C0.303419 31.4882 -0.265366 30.5678 0.125698 29.7857L4.8312 20.3746C4.92891 20.1792 5.0791 20.0149 5.26494 19.9001C5.45078 19.7852 5.66492 19.7244 5.88338 19.7244H10.3154C10.4142 21.1361 10.8691 22.5413 11.6801 23.8929C12.6829 25.5642 14.8507 26.1061 16.522 25.1033C16.9728 24.8337 17.3575 24.4665 17.6477 24.0287C18.6841 25.5929 20.7788 26.0784 22.4039 25.1033C22.8547 24.8337 23.2394 24.4665 23.5296 24.0287C24.566 25.5929 26.6607 26.0784 28.2858 25.1033C29.9572 24.1005 30.4991 21.9327 29.4963 20.2614C29.3816 20.0702 29.2929 19.8934 29.2302 19.7244ZM21.597 21.4719C21.9312 22.029 21.7505 22.7516 21.1935 23.0858C20.6364 23.4201 19.9137 23.2394 19.5795 22.6823C18.1796 20.3492 18.1796 17.9231 19.5795 15.5899C20.5323 14.0018 20.5323 12.5066 19.5795 10.9185C19.2452 10.3614 19.4259 9.63881 19.9829 9.30453C20.54 8.97026 21.2627 9.15095 21.597 9.70802C22.9968 12.0412 22.9968 14.4673 21.597 16.8004C20.6441 18.3885 20.6441 19.8838 21.597 21.4719ZM15.7151 21.4719C16.0493 22.029 15.8686 22.7516 15.3116 23.0858C14.7545 23.4201 14.0318 23.2394 13.6976 22.6823C12.2977 20.3492 12.2977 17.9231 13.6976 15.5899C14.6505 14.0018 14.6505 12.5066 13.6976 10.9185C13.3633 10.3614 13.544 9.63881 14.101 9.30453C14.6581 8.97026 15.3808 9.15095 15.7151 9.70802C17.115 12.0412 17.115 14.4673 15.7151 16.8004C14.7622 18.3885 14.7622 19.8838 15.7151 21.4719ZM27.4788 21.4719C27.8131 22.029 27.6324 22.7516 27.0754 23.0858C26.5183 23.4201 25.7956 23.2394 25.4613 22.6823C24.0615 20.3492 24.0615 17.9231 25.4613 15.5899C26.4142 14.0018 26.4142 12.5066 25.4613 10.9185C25.1271 10.3614 25.3078 9.63881 25.8648 9.30453C26.4219 8.97026 27.1446 9.15095 27.4788 9.70802C28.8787 12.0412 28.8787 14.4673 27.4788 16.8004C26.526 18.3885 26.526 19.8838 27.4788 21.4719Z" fill="white"/>
</svg>
