<svg width="30" height="30" viewBox="0 0 30 30" fill="none" xmlns="http://www.w3.org/2000/svg">
<path d="M27.5386 13.5937L24.8686 9.16495C24.6732 8.84336 24.3986 8.57727 24.0709 8.39213C23.7433 8.20698 23.3737 8.10896 22.9974 8.10745H20.9011V7.7962C20.9012 7.34672 20.8124 6.90165 20.6399 6.48657C20.4675 6.07148 20.2147 5.69456 19.8961 5.37745C19.2522 4.73577 18.3802 4.37531 17.4711 4.37495H4.99238C4.31321 4.37046 3.64814 4.56873 3.0823 4.9444C2.51647 5.32006 2.0756 5.85603 1.81613 6.4837C1.64445 6.89982 1.55775 7.34608 1.56113 7.7962V18.9937C1.56183 19.5196 1.75306 20.0274 2.09939 20.4232C2.44573 20.8189 2.92372 21.0758 3.44488 21.1462C3.43905 21.2587 3.43905 21.3708 3.44488 21.4825C3.44044 22.0126 3.54311 22.5382 3.74673 23.0277C3.95036 23.5172 4.25074 23.9606 4.62988 24.3312C5.00192 24.7184 5.44725 25.0278 5.93996 25.2413C6.43268 25.4548 6.96293 25.5683 7.49988 25.575C8.57155 25.5652 9.59682 25.1363 10.3561 24.38C11.1147 23.6248 11.5458 22.6015 11.5561 21.5312C11.5625 21.428 11.5625 21.3244 11.5561 21.2212H18.4424C18.436 21.3244 18.436 21.428 18.4424 21.5312C18.4378 22.0616 18.5404 22.5874 18.744 23.0772C18.9476 23.5669 19.2481 24.0105 19.6274 24.3812C19.9997 24.7687 20.4454 25.0783 20.9386 25.2918C21.4318 25.5053 21.9625 25.6186 22.4999 25.625C23.5716 25.6152 24.5968 25.1863 25.3561 24.43C26.1143 23.6746 26.5449 22.6514 26.5549 21.5812C26.5613 21.4776 26.5613 21.3736 26.5549 21.27H27.4999C27.7464 21.2664 27.982 21.1672 28.1567 20.9931C28.3314 20.8191 28.4316 20.584 28.4361 20.3375V16.7425C28.4361 15.63 28.1249 14.54 27.5386 13.5937ZM9.67113 21.4812C9.6715 21.7669 9.61424 22.0498 9.50277 22.3129C9.3913 22.576 9.22791 22.8139 9.02238 23.0125C8.60652 23.4076 8.05478 23.6279 7.48113 23.6279C6.90748 23.6279 6.35574 23.4076 5.93988 23.0125C5.73718 22.8102 5.57667 22.5697 5.46766 22.3049C5.35866 22.0401 5.30333 21.7563 5.30488 21.47C5.29901 21.1743 5.35878 20.881 5.47988 20.6112C5.64488 20.22 5.92863 19.89 6.28988 19.665C6.65936 19.4207 7.09459 19.2951 7.53738 19.305C7.95988 19.305 8.37238 19.43 8.72238 19.665C9.08113 19.8937 9.36363 20.2225 9.53488 20.6112C9.65738 20.88 9.72238 21.1737 9.72113 21.47L9.67113 21.4812ZM13.7261 15.2612H7.48863C7.15841 15.2609 6.84173 15.1299 6.60776 14.8969C6.37378 14.6638 6.24153 14.3477 6.23988 14.0175C6.23955 13.8537 6.27161 13.6914 6.33422 13.54C6.39682 13.3887 6.48874 13.2512 6.60468 13.1355C6.72062 13.0198 6.85829 12.9281 7.00978 12.8658C7.16127 12.8035 7.32358 12.7718 7.48738 12.7725H13.7261C14.0564 12.7731 14.3729 12.9044 14.6066 13.1377C14.8404 13.3709 14.9723 13.6872 14.9736 14.0175C14.9738 14.1811 14.9416 14.3433 14.8789 14.4945C14.8163 14.6457 14.7243 14.783 14.6084 14.8986C14.4925 15.0142 14.3548 15.1057 14.2034 15.1679C14.052 15.2302 13.8898 15.2619 13.7261 15.2612ZM13.7261 10.9812H7.48863C7.15841 10.9809 6.84173 10.8499 6.60776 10.6169C6.37378 10.3838 6.24153 10.0677 6.23988 9.73745C6.23971 9.57376 6.2719 9.41164 6.33458 9.26043C6.39726 9.10921 6.4892 8.97187 6.60512 8.85629C6.72105 8.74072 6.85866 8.64919 7.01007 8.58696C7.16148 8.52474 7.32369 8.49304 7.48738 8.4937H13.7261C14.0561 8.49436 14.3725 8.62549 14.6062 8.85849C14.8399 9.09149 14.972 9.40745 14.9736 9.73745C14.9738 9.90115 14.9416 10.0633 14.8789 10.2145C14.8163 10.3657 14.7243 10.503 14.6084 10.6186C14.4925 10.7342 14.3548 10.8257 14.2034 10.8879C14.052 10.9502 13.8898 10.9819 13.7261 10.9812ZM24.6436 21.4812C24.6438 21.767 24.5864 22.05 24.4747 22.3131C24.363 22.5762 24.1994 22.8141 23.9936 23.0125C23.5778 23.4072 23.0264 23.6273 22.453 23.6273C21.8796 23.6273 21.3282 23.4072 20.9124 23.0125C20.7095 22.8103 20.5487 22.5698 20.4395 22.305C20.3303 22.0402 20.2747 21.7564 20.2761 21.47C20.2708 21.0167 20.4159 20.5745 20.6886 20.2125C20.9961 19.8037 21.4374 19.5125 21.9361 19.3912H22.2486C22.3057 19.3776 22.3653 19.3776 22.4224 19.3912H22.6724C23.0511 19.435 23.4124 19.5762 23.7199 19.8025C24.0286 20.0287 24.2699 20.3337 24.4186 20.6862C24.5424 20.955 24.6061 21.2487 24.6061 21.5437L24.6436 21.4812Z" fill="white"/>
<path d="M22.4499 19.2925C22.3924 19.2787 22.3324 19.2787 22.2749 19.2925H22.4499Z" fill="white"/>
</svg>
