<svg width="30" height="30" viewBox="0 0 30 30" fill="none" xmlns="http://www.w3.org/2000/svg">
<path d="M27.1375 25.3625L25.3625 27.1375C25.1283 27.3703 24.8115 27.501 24.4813 27.501C24.151 27.501 23.8342 27.3703 23.6 27.1375L8.75001 12.3125C8.34356 12.4304 7.92317 12.4935 7.50001 12.5C6.70414 12.4994 5.9199 12.3089 5.2125 11.9442C4.5051 11.5795 3.89497 11.0512 3.43284 10.4033C2.97071 9.75533 2.66994 9.00641 2.55552 8.21881C2.44111 7.43121 2.51636 6.62767 2.77501 5.875L5.95001 9.05L6.61251 8.3875L8.38751 6.6125L9.05001 5.95L5.87501 2.775C6.62768 2.51634 7.43122 2.44109 8.21882 2.55551C9.00643 2.66992 9.75534 2.9707 10.4033 3.43283C11.0513 3.89496 11.5795 4.50508 11.9442 5.21249C12.3089 5.91989 12.4994 6.70413 12.5 7.5C12.4935 7.92316 12.4304 8.34355 12.3125 8.75L27.1375 23.6C27.3703 23.8342 27.501 24.151 27.501 24.4812C27.501 24.8115 27.3703 25.1283 27.1375 25.3625ZM2.86251 23.6C2.6297 23.8342 2.49902 24.151 2.49902 24.4812C2.49902 24.8115 2.6297 25.1283 2.86251 25.3625L4.63751 27.1375C4.87172 27.3703 5.18853 27.501 5.51876 27.501C5.849 27.501 6.16581 27.3703 6.40001 27.1375L13.2375 20.3125L9.70001 16.775M25 2.5L20 5V7.5L17.2875 10.2125L19.7875 12.7125L22.5 10H25L27.5 5L25 2.5Z" fill="white"/>
</svg>
