<svg width="40" height="41" viewBox="0 0 40 41" fill="none" xmlns="http://www.w3.org/2000/svg">
<g clip-path="url(#clip0_1_2877)">
<path d="M20 30.3125C25.5228 30.3125 30 25.8353 30 20.3125C30 14.7897 25.5228 10.3125 20 10.3125C14.4772 10.3125 10 14.7897 10 20.3125C10 25.8353 14.4772 30.3125 20 30.3125Z" fill="white"/>
<path d="M20 0.3125C19.0435 0.3125 18.2609 3.96467 18.2609 5.00815C18.2609 6.05163 19.0435 6.9212 20 6.9212C20.9565 6.9212 21.7391 6.05163 21.7391 5.00815C21.7391 3.96467 20.9565 0.3125 20 0.3125ZM20 40.3125C20.9565 40.3125 21.7391 36.6603 21.7391 35.6168C21.7391 34.5734 20.9565 33.7038 20 33.7038C19.0435 33.7038 18.2609 34.5734 18.2609 35.6168C18.2609 36.6603 19.0435 40.3125 20 40.3125ZM40 20.3125C40 19.356 36.3478 18.5734 35.3043 18.5734C34.2609 18.5734 33.3913 19.356 33.3913 20.3125C33.3913 21.269 34.2609 22.0516 35.3043 22.0516C36.3478 22.0516 40 21.269 40 20.3125ZM0 20.3125C0 21.269 3.65217 22.0516 4.69565 22.0516C5.73913 22.0516 6.6087 21.269 6.6087 20.3125C6.6087 19.356 5.73913 18.5734 4.69565 18.5734C3.65217 18.5734 0 19.356 0 20.3125ZM10 3.00815C9.13043 3.52989 10.3478 7.00815 10.7826 7.96467C11.3043 8.83424 12.4348 9.18207 13.2174 8.74728C14.087 8.22554 14.3478 7.18207 13.8261 6.22554C13.3043 5.26902 10.8696 2.48641 10 3.00815ZM30 37.6168C30.8696 37.0951 29.6522 33.6168 29.2174 32.6603C28.6957 31.7908 27.5652 31.4429 26.7826 31.8777C25.913 32.3995 25.6522 33.4429 26.1739 34.3995C26.6957 35.356 29.1304 38.1386 30 37.6168ZM37.3043 10.3125C36.7826 9.44293 33.3043 10.6603 32.3478 11.0951C31.4783 11.6168 31.1304 12.7473 31.5652 13.5299C32.087 14.3995 33.1304 14.6603 34.087 14.1386C35.0435 13.6168 37.8261 11.1821 37.3043 10.3125ZM2.69565 30.3125C3.21739 31.1821 6.69565 29.9647 7.65217 29.5299C8.52174 29.0082 8.86957 27.8777 8.43478 27.0951C7.91304 26.2255 6.86957 25.9647 5.91304 26.4864C4.95652 27.0082 2.17391 29.4429 2.69565 30.3125ZM2.69565 10.3125C2.17391 11.1821 4.95652 13.6168 5.91304 14.1386C6.78261 14.6603 7.91304 14.3995 8.43478 13.5299C8.95652 12.6603 8.6087 11.6168 7.65217 11.0951C6.69565 10.6603 3.13043 9.44293 2.69565 10.3125ZM37.3043 30.3125C37.8261 29.4429 35.0435 27.0082 34.087 26.4864C33.1304 25.9647 32.087 26.2255 31.5652 27.0951C31.0435 27.9647 31.3913 29.0082 32.3478 29.5299C33.3043 29.9647 36.8696 31.1821 37.3043 30.3125ZM30 3.00815C29.1304 2.48641 26.6957 5.26902 26.1739 6.22554C25.6522 7.09511 25.913 8.22554 26.7826 8.74728C27.6522 9.26902 28.6957 8.9212 29.2174 7.96467C29.6522 7.00815 30.8696 3.44293 30 3.00815ZM10 37.6168C10.8696 38.1386 13.3043 35.356 13.8261 34.3995C14.3478 33.5299 14.087 32.3995 13.2174 31.8777C12.3478 31.356 11.3043 31.7038 10.7826 32.6603C10.3478 33.6168 9.13043 37.1821 10 37.6168Z" fill="white"/>
</g>
<defs>
<clipPath id="clip0_1_2877">
<rect width="40" height="40" fill="white" transform="translate(0 0.3125)"/>
</clipPath>
</defs>
</svg>
