<svg width="20" height="21" viewBox="0 0 20 21" fill="none" xmlns="http://www.w3.org/2000/svg">
<g clip-path="url(#clip0_0_4596)">
<path d="M10 0.3125C15.523 0.3125 20 4.7895 20 10.3125C20 15.8355 15.523 20.3125 10 20.3125C4.477 20.3125 0 15.8355 0 10.3125C0 4.7895 4.477 0.3125 10 0.3125ZM10 14.3125C9.73478 14.3125 9.48043 14.4179 9.29289 14.6054C9.10536 14.7929 9 15.0473 9 15.3125C9 15.5777 9.10536 15.8321 9.29289 16.0196C9.48043 16.2071 9.73478 16.3125 10 16.3125C10.2652 16.3125 10.5196 16.2071 10.7071 16.0196C10.8946 15.8321 11 15.5777 11 15.3125C11 15.0473 10.8946 14.7929 10.7071 14.6054C10.5196 14.4179 10.2652 14.3125 10 14.3125ZM10 4.8125C9.03859 4.8125 8.11656 5.19442 7.43674 5.87424C6.75692 6.55406 6.375 7.47609 6.375 8.4375C6.375 8.70272 6.48036 8.95707 6.66789 9.14461C6.85543 9.33214 7.10978 9.4375 7.375 9.4375C7.64022 9.4375 7.89457 9.33214 8.08211 9.14461C8.26964 8.95707 8.375 8.70272 8.375 8.4375C8.37533 8.14254 8.45594 7.85322 8.60818 7.60059C8.76043 7.34795 8.97857 7.14152 9.2392 7.00342C9.49984 6.86532 9.79316 6.80077 10.0877 6.81669C10.3822 6.83261 10.6669 6.92839 10.9111 7.09377C11.1553 7.25916 11.35 7.4879 11.4741 7.75547C11.5982 8.02304 11.6472 8.31936 11.6157 8.61264C11.5843 8.90592 11.4736 9.18511 11.2955 9.42027C11.1175 9.65542 10.8788 9.83768 10.605 9.9475C9.929 10.2175 9 10.9095 9 12.0625V12.3125C9 12.5777 9.10536 12.8321 9.29289 13.0196C9.48043 13.2071 9.73478 13.3125 10 13.3125C10.2652 13.3125 10.5196 13.2071 10.7071 13.0196C10.8946 12.8321 11 12.5777 11 12.3125C11 12.0685 11.05 11.9465 11.261 11.8425L11.348 11.8025C12.1288 11.4884 12.776 10.9125 13.1787 10.1734C13.5814 9.43438 13.7145 8.57828 13.5551 7.75188C13.3958 6.92549 12.9539 6.18026 12.3052 5.64397C11.6566 5.10768 10.8416 4.81372 10 4.8125Z" fill="url(#paint0_linear_0_4596)"/>
</g>
<defs>
<linearGradient id="paint0_linear_0_4596" x1="0" y1="10.3125" x2="20" y2="10.3125" gradientUnits="userSpaceOnUse">
<stop stop-color="#DF9241"/>
<stop offset="1" stop-color="#F87023"/>
</linearGradient>
<clipPath id="clip0_0_4596">
<rect width="20" height="20" fill="white" transform="translate(0 0.3125)"/>
</clipPath>
</defs>
</svg>
