<svg width="40" height="41" viewBox="0 0 40 41" fill="none" xmlns="http://www.w3.org/2000/svg">
<path d="M30.6068 8.57165C33.3606 11.3252 34.9357 15.0418 34.9988 18.9357C35.0619 22.8295 33.6082 26.5953 30.9451 29.4366L30.6068 29.7866L23.5351 36.8566C22.6378 37.7534 21.4332 38.2755 20.1653 38.3173C18.8975 38.3591 17.6611 37.9174 16.7068 37.0816L16.4668 36.8566L9.39343 29.785C6.58036 26.9719 5 23.1566 5 19.1783C5 15.2 6.58036 11.3847 9.39343 8.57165C12.2065 5.75859 16.0218 4.17822 20.0001 4.17822C23.9784 4.17822 27.7937 5.75859 30.6068 8.57165ZM20.0001 14.1783C19.3435 14.1783 18.6933 14.3076 18.0867 14.5589C17.48 14.8102 16.9289 15.1785 16.4646 15.6428C16.0003 16.1071 15.632 16.6583 15.3807 17.2649C15.1294 17.8715 15.0001 18.5217 15.0001 19.1783C15.0001 19.8349 15.1294 20.4851 15.3807 21.0917C15.632 21.6984 16.0003 22.2496 16.4646 22.7138C16.9289 23.1781 17.48 23.5464 18.0867 23.7977C18.6933 24.049 19.3435 24.1783 20.0001 24.1783C21.3262 24.1783 22.5979 23.6515 23.5356 22.7138C24.4733 21.7762 25.0001 20.5044 25.0001 19.1783C25.0001 17.8522 24.4733 16.5805 23.5356 15.6428C22.5979 14.7051 21.3262 14.1783 20.0001 14.1783Z" fill="white"/>
</svg>
