<svg width="14" height="14" viewBox="0 0 14 14" fill="none" xmlns="http://www.w3.org/2000/svg">
<g opacity="0.25">
<path d="M10.7124 2.70445C11.6762 3.66819 12.2275 4.96902 12.2496 6.33186C12.2717 7.6947 11.7629 9.01271 10.8308 10.0072L10.7124 10.1297L8.23728 12.6042C7.92323 12.918 7.50163 13.1008 7.05787 13.1154C6.61412 13.13 6.1814 12.9754 5.84737 12.6829L5.76337 12.6042L3.2877 10.1291C2.30313 9.14454 1.75 7.80918 1.75 6.41678C1.75 5.02438 2.30313 3.68902 3.2877 2.70445C4.27227 1.71987 5.60764 1.16675 7.00003 1.16675C8.39243 1.16675 9.72779 1.71987 10.7124 2.70445ZM7.00003 4.66678C6.77022 4.66678 6.54266 4.71205 6.33034 4.79999C6.11802 4.88794 5.9251 5.01684 5.7626 5.17934C5.60009 5.34185 5.47119 5.53476 5.38324 5.74708C5.2953 5.9594 5.25003 6.18697 5.25003 6.41678C5.25003 6.64659 5.2953 6.87416 5.38324 7.08648C5.47119 7.2988 5.60009 7.49171 5.7626 7.65422C5.9251 7.81672 6.11802 7.94562 6.33034 8.03357C6.54266 8.12152 6.77022 8.16678 7.00003 8.16678C7.46416 8.16678 7.90928 7.98241 8.23747 7.65422C8.56566 7.32603 8.75003 6.88091 8.75003 6.41678C8.75003 5.95265 8.56566 5.50753 8.23747 5.17934C7.90928 4.85115 7.46416 4.66678 7.00003 4.66678Z" fill="#281306"/>
</g>
</svg>
