<svg width="241" height="50" viewBox="0 0 241 50" fill="none" xmlns="http://www.w3.org/2000/svg">
<path fill-rule="evenodd" clip-rule="evenodd" d="M34.5838 27.3383L36.7657 23.6296L40.9782 23.7668L37.3413 27.5776L36.9025 27.5395L38.0913 25.288L35.9626 27.4579L34.5838 27.3383ZM37.9612 14.6382L39.6689 14.4902L40.4579 16.1437L40.3471 13.0502L39.1481 11.389L36.9257 11.6385L36.9706 13.4878L37.9612 14.6382ZM23.9848 46.7991L25.286 43.5632L23.2608 41.0955L26.1961 43.2929L25.9143 47.2288L28.8716 47.8875L35.6689 42.864L37.9347 40.2318L36.4362 43.0192L29.2882 50.0102L16.2652 48.7124L5.19569 40.5619L0.423311 30.4725L26.7591 23.8408L29.2682 24.644L30.1204 24.3132L27.1852 22.4232L22.6877 22.8012L19.9892 20.8637L20.4152 16.7998L23.2085 13.114H23.9187L24.1079 17.9339L27.6349 19.9421L30.4754 19.635L31.8247 18.6664L36.4169 16.3746L38.9971 16.8707L36.8193 18.4774L36.0856 20.1549L38.642 21.7144L41.4234 21.8679L43.2461 21.1119L44.4296 19.0799L46.2523 18.6782L46.8204 18.0402L44.8556 17.8749L45.8736 16.1973L48.0631 16.091L40.7725 7.77418L30.3572 3.23782L10.9249 3.95247L20.3445 0.0103455L31.0364 0.188483H31.0368L42.3011 6.05743L42.3069 6.06283L49.1099 16.0126L49.1246 16.0517L49.6863 17.7256L48.146 19.2453L46.1103 23.0729L41.4708 25.4356L37.7415 28.6554L33.2125 28.3222L27.7296 26.7706L12.4327 36.1327L17.4148 45.3357L23.9848 46.7991ZM21.0244 39.8283L23.0742 41.4996L24.3376 43.5268L22.6311 45.2422L20.0984 44.9184L17.9924 42.5076L16.9073 39.0639L14.1693 36.4161L17.8115 35.9829L19.4168 39.1246L18.7503 36.19L21.8691 37.1357L22.2843 38.631L22.4108 37.5992L24.3938 39.2958L24.9463 41.7413L23.2951 40.433L21.0244 39.8283ZM11.0818 16.9031L-0.0773926 27.2558L1.02557 17.1882L9.71344 14.8456L16.2846 11.2356L11.1448 23.5884L11.0818 16.9031ZM13.1127 10.4558L9.24248 13.0193L2.63434 13.3146L7.03716 7.21562L15.4799 5.91948L23.3624 4.64357L24.0133 5.08067L18.1429 7.11261L13.1127 10.4558ZM39.2396 37.8695L35.0502 42.2978L30.1715 44.8618L26.5022 40.6614L27.6669 34.9021L31.5422 32.4953L31.5637 40.1092L33.4583 31.4665L41.682 28.5467L48.2345 22.7009L48.6301 31.1321L41.1267 34.2967L47.9973 33.2522L45.3029 40.2542L41.7895 40.9597L44.1454 41.4208L39.9087 45.6911L34.1836 46.5544L37.4705 42.9813L39.2396 37.8695ZM42.962 13.9763L43.7668 12.4642L40.4055 8.73114H35.9554L35.0085 9.20363L39.8375 10.196L42.962 13.9763ZM25.0429 10.5032L25.4217 10.9757L32.2864 7.38432L28.8776 5.96671L25.0429 10.5032ZM13.899 23.4893L17.7167 22.7539L18.8056 16.469L21.1254 11.4128L24.8181 6.97091L23.8121 7.07722L18.0603 12.7197L13.899 23.4893Z" fill="#A14E1F"/>
<path fill-rule="evenodd" clip-rule="evenodd" d="M34.5839 27.3383L36.7658 23.6296L40.9782 23.7668L37.3414 27.5776L36.9028 27.5395L38.0914 25.288L35.9626 27.4579L34.5839 27.3383ZM42.5836 34.0753C42.135 34.1513 41.6822 34.2194 41.2267 34.2816L42.5836 34.0753ZM41.131 34.2951C39.2293 34.5502 37.2701 34.6848 35.2674 34.6848C34.4264 34.6848 33.5925 34.6616 32.7681 34.6148L33.4584 31.4665L41.6821 28.5467L48.2346 22.7009L48.6302 31.1321L41.131 34.2951ZM31.548 34.528C30.6142 34.4495 29.6916 34.3438 28.784 34.2083L31.5422 32.4954L31.548 34.528ZM19.626 31.7302C16.847 30.6011 14.3205 29.1811 12.1245 27.5259L26.7592 23.8409L29.2683 24.6442L30.1205 24.3132L27.1852 22.423L22.6878 22.8012L19.9893 20.8637L20.4152 16.7998L23.2086 13.114H23.9186L24.108 17.934L27.635 19.9423L30.4755 19.635L31.8247 18.6664L36.4171 16.3746L38.9972 16.8706L36.8194 18.4774L36.0857 20.1549L38.6421 21.7144L41.4235 21.8679L43.2462 21.1119L44.4297 19.0798L46.2524 18.6782L46.8205 18.0402L44.8557 17.8748L45.8737 16.1973L48.0634 16.091L40.7726 7.77433L30.3571 3.23767L10.9249 3.95247L20.3446 0.0103455L31.0364 0.188483H31.0369L42.3011 6.05743L42.307 6.06283L49.1101 16.0126L49.1247 16.0519L49.6865 17.7256L48.1461 19.2453L46.1104 23.073L41.4708 25.4357L37.7418 28.6554L33.2126 28.3222L27.7297 26.7704L19.626 31.7302ZM6.246 21.3896C5.20884 19.8234 4.40378 18.1598 3.86116 16.4236L9.71352 14.8456L16.2847 11.2356L11.1449 23.5882L11.0821 16.9031L6.246 21.3896ZM3.1856 13.29C3.15946 13.0753 3.13752 12.8599 3.1189 12.6437L7.03724 7.21562L15.4799 5.91948L23.3624 4.64357L24.0134 5.08067L18.1428 7.11261L13.1128 10.4558L9.24256 13.0195L3.1856 13.29ZM37.9613 14.6382L39.669 14.4903L40.458 16.1437L40.347 13.0504L39.1482 11.389L36.9257 11.6385L36.9707 13.4879L37.9613 14.6382ZM42.9621 13.9765L43.7669 12.4642L40.4056 8.73114H35.9556L35.0086 9.20363L39.8374 10.196L42.9621 13.9765ZM25.043 10.5032L25.4217 10.9757L32.2863 7.38446L28.8777 5.96671L25.043 10.5032ZM13.8991 23.4893L17.7168 22.7538L18.8056 16.4692L21.1254 11.4128L24.8181 6.97091L23.8121 7.07737L18.0604 12.7197L13.8991 23.4893Z" fill="#C5692C"/>
<path d="M64.9149 33.6346C70.0421 33.6346 73.8875 29.7725 73.8875 25.0103C73.8875 20.2006 70.0896 16.3861 64.9625 16.3861C59.8353 16.3861 55.99 20.2482 55.99 25.0103C55.99 29.8201 59.7879 33.6346 64.9149 33.6346ZM64.9625 29.4882C62.4463 29.4882 60.7135 27.4034 60.7135 25.0103C60.7135 22.5701 62.3989 20.5323 64.9149 20.5323C67.4548 20.5323 69.1876 22.6173 69.1876 25.0103C69.1876 27.4506 67.5023 29.4882 64.9625 29.4882ZM76.2848 33.3027H80.8898V29.0144L82.575 27.1428L86.7528 33.3027H92.2832L85.7795 23.8493L92.0698 16.7179H86.6102L80.8898 23.4465V16.7179H76.2848V33.3027ZM93.6126 33.3027H98.17V24.2047L105.267 33.3027H109.302V16.7179H104.745V25.4842L97.9089 16.7179H93.6126V33.3027ZM110.917 33.3027H115.759L116.946 30.3411H123.355L124.565 33.3027H129.502L122.429 16.5993H117.99L110.917 33.3027ZM118.299 26.7635L120.174 22.0487L122.025 26.7635H118.299ZM201.401 33.3027H206.101V28.6827H201.401V33.3027ZM208.593 33.3027H213.198V28.2798H215.216L218.563 33.3027H223.88L219.916 27.5217C221.981 26.6452 223.334 24.963 223.334 22.428C223.334 20.7455 222.835 19.4663 221.862 18.495C220.746 17.3813 218.99 16.7179 216.45 16.7179H208.593V33.3027ZM213.198 24.6787V20.6983H216.213C217.756 20.6983 218.705 21.3617 218.705 22.6647C218.705 23.9204 217.803 24.6787 216.236 24.6787H213.198ZM233.137 33.6107C237.861 33.6107 240.923 31.2653 240.923 25.9106V16.7179H236.246V26.0528C236.246 28.3747 235.036 29.4645 233.185 29.4645C231.333 29.4645 230.122 28.3273 230.122 25.9343V16.7179H225.446V26.0292C225.446 31.2179 228.413 33.6107 233.137 33.6107Z" fill="#A14E1F"/>
<path d="M131.116 33.3027H139.685C143.65 33.3027 145.976 31.5733 145.976 28.7301C145.976 26.432 144.694 25.2946 142.676 24.6311C144.148 23.9915 145.24 22.8544 145.24 20.9352C145.24 19.7506 144.836 18.8739 144.172 18.2107C143.199 17.239 141.727 16.7179 139.638 16.7179H131.116V33.3027ZM135.603 29.6067V26.5503H139.116C140.659 26.5503 141.371 27.1428 141.371 28.043C141.371 29.0619 140.564 29.6067 139.163 29.6067H135.603ZM135.603 23.3282V20.4139H138.593C139.97 20.4139 140.682 20.9352 140.682 21.8355C140.682 22.8544 139.899 23.3282 138.499 23.3282H135.603ZM156.444 33.6346C161.571 33.6346 165.416 29.7725 165.416 25.0103C165.416 20.2006 161.618 16.3861 156.491 16.3861C151.364 16.3861 147.519 20.2482 147.519 25.0103C147.519 29.8201 151.316 33.6346 156.444 33.6346ZM156.491 29.4882C153.975 29.4882 152.242 27.4034 152.242 25.0103C152.242 22.5701 153.928 20.5323 156.444 20.5323C158.984 20.5323 160.716 22.6173 160.716 25.0103C160.716 27.4506 159.031 29.4882 156.491 29.4882ZM167.813 33.3027H176.382C180.346 33.3027 182.673 31.5733 182.673 28.7301C182.673 26.432 181.391 25.2946 179.373 24.6311C180.845 23.9915 181.937 22.8544 181.937 20.9352C181.937 19.7506 181.533 18.8739 180.869 18.2107C179.895 17.239 178.424 16.7179 176.335 16.7179H167.813V33.3027ZM172.3 29.6067V26.5503H175.813C177.356 26.5503 178.068 27.1428 178.068 28.043C178.068 29.0619 177.261 29.6067 175.86 29.6067H172.3ZM172.3 23.3282V20.4139H175.291C176.667 20.4139 177.379 20.9352 177.379 21.8355C177.379 22.8544 176.596 23.3282 175.196 23.3282H172.3ZM184.785 33.3027H189.39V28.2798H191.408L194.755 33.3027H200.072L196.108 27.5217C198.173 26.6452 199.526 24.963 199.526 22.428C199.526 20.7455 199.027 19.4663 198.054 18.495C196.938 17.3813 195.182 16.7179 192.642 16.7179H184.785V33.3027ZM189.39 24.6787V20.6983H192.405C193.948 20.6983 194.897 21.3617 194.897 22.6647C194.897 23.9204 193.995 24.6787 192.428 24.6787H189.39Z" fill="#C5692C"/>
</svg>
