<svg width="360" height="361" viewBox="0 0 360 361" fill="none" xmlns="http://www.w3.org/2000/svg">
<g clip-path="url(#clip0_0_641)">
<path fill-rule="evenodd" clip-rule="evenodd" d="M249.004 197.148L264.713 170.446L295.043 171.433L268.858 198.871L265.699 198.597L274.257 182.386L258.931 198.009L249.004 197.148ZM273.321 105.707L285.617 104.642L291.297 116.547L290.499 94.2739L281.867 82.3128L265.865 84.1093L266.189 97.4242L273.321 105.707ZM172.691 337.266L182.06 313.967L167.478 296.2L188.612 312.021L186.583 340.36L207.876 345.103L256.816 308.933L273.13 289.981L262.341 310.05L210.875 360.386L117.11 351.042L37.4093 292.358L3.04818 219.714L192.666 171.966L210.731 177.749L216.867 175.368L195.734 161.759L163.352 164.481L143.923 150.531L146.99 121.271L167.102 94.7327H172.215L173.577 129.436L198.972 143.895L219.423 141.684L229.138 134.71L262.202 118.209L280.78 121.782L265.099 133.35L259.817 145.427L278.223 156.656L298.249 157.761L311.372 152.318L319.893 137.688L333.017 134.795L337.108 130.202L322.961 129.012L330.29 116.933L346.055 116.168L293.562 56.2863L218.572 23.6245L78.6593 28.77L146.481 0.386719L223.462 1.66931H223.465L304.568 43.9257L304.61 43.9646L353.592 115.603L353.698 115.885L357.742 127.937L346.652 138.878L331.995 166.437L298.59 183.449L271.739 206.631L239.131 204.232L199.653 193.06L89.5156 260.468L125.387 326.729L172.691 337.266ZM151.376 287.076L166.135 299.11L175.231 313.705L162.944 326.056L144.709 323.725L129.546 306.367L121.733 281.572L102.019 262.508L128.243 259.389L139.802 282.009L135.002 260.88L157.458 267.689L160.448 278.455L161.358 271.026L175.636 283.242L179.614 300.85L167.725 291.43L151.376 287.076ZM79.7896 122.015L-0.556885 196.554L7.38442 124.067L69.9371 107.2L117.25 81.2083L80.2428 170.149L79.7896 122.015ZM94.4121 75.5943L66.5462 94.0515L18.9676 96.1773L50.6679 52.2647L111.455 42.9325L168.209 33.746L172.896 36.8931L130.629 51.523L94.4121 75.5943ZM282.525 272.973L252.362 304.856L217.235 323.317L190.816 293.074L199.202 251.607L227.104 234.278L227.259 289.098L240.9 226.871L300.111 205.849L347.289 163.758L350.137 224.463L296.113 247.249L345.581 239.728L326.181 290.142L300.885 295.222L317.847 298.542L287.343 329.288L246.122 335.504L269.788 309.777L282.525 272.973ZM309.327 100.942L315.121 90.0547L290.92 63.1765H258.879L252.061 66.5783L286.83 73.7233L309.327 100.942ZM180.31 75.9354L183.036 79.3373L232.462 53.4793L207.919 43.2725L180.31 75.9354ZM100.073 169.435L127.561 164.141L135.4 118.889L152.103 82.4844L178.69 50.5028L171.448 51.2682L130.034 91.8944L100.073 169.435Z" fill="#AB6942"/>
<path fill-rule="evenodd" clip-rule="evenodd" d="M249.004 197.148L264.713 170.446L295.043 171.433L268.858 198.871L265.7 198.597L274.257 182.386L258.931 198.009L249.004 197.148ZM306.601 245.654C303.372 246.202 300.112 246.692 296.832 247.14L306.601 245.654ZM296.143 247.237C282.451 249.073 268.344 250.043 253.925 250.043C247.87 250.043 241.866 249.876 235.93 249.539L240.9 226.871L300.111 205.849L347.289 163.758L350.137 224.463L296.143 247.237ZM227.145 248.914C220.422 248.349 213.779 247.588 207.244 246.612L227.104 234.279L227.145 248.914ZM141.307 228.77C121.298 220.64 103.107 210.416 87.2961 198.498L192.666 171.967L210.731 177.75L216.867 175.368L195.734 161.758L163.352 164.481L143.923 150.531L146.989 121.271L167.102 94.7327H172.214L173.577 129.437L198.972 143.897L219.423 141.684L229.137 134.71L262.203 118.209L280.78 121.781L265.099 133.35L259.817 145.427L278.223 156.656L298.249 157.761L311.372 152.318L319.893 137.687L333.017 134.795L337.108 130.202L322.961 129.011L330.29 116.933L346.056 116.168L293.562 56.2874L218.571 23.6234L78.6593 28.77L146.481 0.386719L223.462 1.66931H223.465L304.568 43.9257L304.61 43.9646L353.593 115.603L353.698 115.886L357.743 127.937L346.652 138.878L331.995 166.438L298.59 183.45L271.741 206.631L239.131 204.232L199.653 193.059L141.307 228.77ZM44.971 154.317C37.5034 143.04 31.707 131.063 27.8001 118.562L69.9371 107.2L117.25 81.2083L80.2428 170.148L79.7907 122.015L44.971 154.317ZM22.9361 96.0002C22.7479 94.4542 22.5899 92.9039 22.4558 91.3471L50.6679 52.2647L111.455 42.9325L168.209 33.746L172.896 36.8931L130.628 51.523L94.4121 75.5943L66.5462 94.0526L22.9361 96.0002ZM273.321 105.707L285.617 104.643L291.297 116.547L290.498 94.275L281.867 82.3128L265.865 84.1093L266.189 97.4253L273.321 105.707ZM309.327 100.943L315.121 90.0547L290.92 63.1765H258.88L252.061 66.5784L286.829 73.7233L309.327 100.943ZM180.31 75.9354L183.036 79.3373L232.461 53.4804L207.919 43.2726L180.31 75.9354ZM100.073 169.435L127.561 164.139L135.4 118.89L152.103 82.4844L178.69 50.5028L171.447 51.2693L130.034 91.8944L100.073 169.435Z" fill="#AB6942"/>
</g>
<defs>
<clipPath id="clip0_0_641">
<rect width="360" height="360" fill="white" transform="translate(0 0.3125)"/>
</clipPath>
</defs>
</svg>
