<svg width="14" height="14" viewBox="0 0 14 14" fill="none" xmlns="http://www.w3.org/2000/svg">
<g opacity="0.25">
<path d="M12.8334 4.39542V9.91667C12.8334 10.363 12.6629 10.7926 12.3567 11.1173C12.0504 11.4421 11.6317 11.6376 11.1861 11.6638L11.0834 11.6667H2.91675C2.47038 11.6667 2.04086 11.4961 1.7161 11.1899C1.39133 10.8837 1.19585 10.4649 1.16966 10.0193L1.16675 9.91667V4.39542L6.67633 8.06867L6.744 8.10717C6.82374 8.14613 6.91133 8.16638 7.00008 8.16638C7.08884 8.16638 7.17642 8.14613 7.25617 8.10717L7.32383 8.06867L12.8334 4.39542Z" fill="#281306"/>
<path d="M11.0834 2.33333C11.7134 2.33333 12.2658 2.66583 12.5738 3.16575L7.00002 6.88158L1.42627 3.16575C1.57256 2.92823 1.77352 2.72913 2.01239 2.58504C2.25125 2.44095 2.5211 2.35605 2.79944 2.33742L2.91669 2.33333H11.0834Z" fill="#281306"/>
</g>
</svg>
