<svg width="20" height="21" viewBox="0 0 20 21" fill="none" xmlns="http://www.w3.org/2000/svg">
<path d="M18.3334 6.5918V14.4793C18.3335 15.117 18.0898 15.7306 17.6523 16.1945C17.2149 16.6585 16.6167 16.9377 15.9801 16.9751L15.8334 16.9793H4.16675C3.52907 16.9793 2.91549 16.7357 2.45153 16.2982C1.98758 15.8608 1.70833 15.2625 1.67091 14.626L1.66675 14.4793V6.5918L9.53758 11.8393L9.63425 11.8943C9.74817 11.95 9.87329 11.9789 10.0001 11.9789C10.1269 11.9789 10.252 11.95 10.3659 11.8943L10.4626 11.8393L18.3334 6.5918Z" fill="url(#paint0_linear_0_649)"/>
<path d="M15.8334 3.64551C16.7334 3.64551 17.5226 4.12051 17.9626 4.83467L10.0001 10.143L2.0376 4.83467C2.24659 4.49536 2.53367 4.21092 2.87491 4.00508C3.21614 3.79924 3.60164 3.67796 3.99926 3.65134L4.16676 3.64551H15.8334Z" fill="url(#paint1_linear_0_649)"/>
<defs>
<linearGradient id="paint0_linear_0_649" x1="1.66675" y1="11.7855" x2="18.3334" y2="11.7855" gradientUnits="userSpaceOnUse">
<stop stop-color="#DF9241"/>
<stop offset="1" stop-color="#F87023"/>
</linearGradient>
<linearGradient id="paint1_linear_0_649" x1="2.0376" y1="6.89426" x2="17.9626" y2="6.89426" gradientUnits="userSpaceOnUse">
<stop stop-color="#DF9241"/>
<stop offset="1" stop-color="#F87023"/>
</linearGradient>
</defs>
</svg>
