<svg width="20" height="21" viewBox="0 0 20 21" fill="none" xmlns="http://www.w3.org/2000/svg">
<path d="M9.49993 15.4468L15.6633 9.28343C14.6264 8.85028 13.6847 8.21776 12.8916 7.42176C12.0952 6.62847 11.4624 5.68647 11.0291 4.64926L4.86577 10.8126C4.38493 11.2934 4.1441 11.5343 3.93743 11.7993C3.69359 12.1122 3.48432 12.4505 3.31327 12.8084C3.1691 13.1118 3.0616 13.4351 2.8466 14.0801L1.7116 17.4826C1.65936 17.6384 1.65161 17.8057 1.68922 17.9656C1.72683 18.1256 1.80831 18.2718 1.92449 18.388C2.04068 18.5042 2.18697 18.5857 2.34692 18.6233C2.50688 18.6609 2.67415 18.6532 2.82993 18.6009L6.23243 17.4659C6.87827 17.2509 7.20077 17.1434 7.5041 16.9993C7.86355 16.8281 8.19993 16.6201 8.51327 16.3751C8.77827 16.1684 9.0191 15.9276 9.49993 15.4468ZM17.3733 7.57343C17.9878 6.9589 18.333 6.12542 18.333 5.25634C18.333 4.38727 17.9878 3.55379 17.3733 2.93926C16.7587 2.32473 15.9253 1.97949 15.0562 1.97949C14.1871 1.97949 13.3536 2.32473 12.7391 2.93926L11.9999 3.67843L12.0316 3.77093C12.3958 4.81324 12.9919 5.75925 13.7749 6.53759C14.5765 7.34411 15.5557 7.95196 16.6341 8.31259L17.3733 7.57343Z" fill="url(#paint0_linear_0_656)"/>
<defs>
<linearGradient id="paint0_linear_0_656" x1="1.66577" y1="10.3131" x2="18.333" y2="10.3131" gradientUnits="userSpaceOnUse">
<stop stop-color="#DF9241"/>
<stop offset="1" stop-color="#F87023"/>
</linearGradient>
</defs>
</svg>
