<svg width="20" height="20" viewBox="0 0 20 20" fill="none" xmlns="http://www.w3.org/2000/svg">
<path d="M16.7004 13.0322L14.3438 12.7632C14.0667 12.7306 13.7858 12.7613 13.5223 12.8529C13.2588 12.9445 13.0194 13.0946 12.8222 13.292L11.1151 14.9992C8.48145 13.6594 6.34073 11.5186 5.00093 8.88496L6.71735 7.16853C7.1163 6.76958 7.31114 6.2129 7.24619 5.64694L6.97713 3.30889C6.92473 2.85621 6.70758 2.43864 6.36707 2.13578C6.02657 1.83292 5.58653 1.66594 5.13083 1.66669H3.52574C2.47734 1.66669 1.60521 2.53882 1.67016 3.58723C2.16189 11.5106 8.49872 17.8382 16.4128 18.3299C17.4612 18.3949 18.3333 17.5228 18.3333 16.4743V14.8693C18.3426 13.9322 17.6375 13.1436 16.7004 13.0322Z" fill="url(#paint0_linear_0_6972)"/>
<defs>
<linearGradient id="paint0_linear_0_6972" x1="1.66675" y1="10" x2="18.3334" y2="10" gradientUnits="userSpaceOnUse">
<stop stop-color="#DF9241"/>
<stop offset="1" stop-color="#F87023"/>
</linearGradient>
</defs>
</svg>
