<svg width="30" height="30" viewBox="0 0 30 30" fill="none" xmlns="http://www.w3.org/2000/svg">
<path d="M20.582 18.3522H19.4077L18.9914 17.9508C20.4987 16.2027 21.3271 13.9709 21.3253 11.6627C21.3253 9.75157 20.7586 7.8834 19.6969 6.29438C18.6351 4.70536 17.126 3.46687 15.3604 2.73553C13.5948 2.00419 11.6519 1.81283 9.77757 2.18567C7.9032 2.55851 6.18148 3.47878 4.83013 4.83013C3.47878 6.18148 2.55851 7.9032 2.18567 9.77757C1.81283 11.6519 2.00419 13.5948 2.73553 15.3604C3.46687 17.126 4.70536 18.6351 6.29438 19.6969C7.8834 20.7586 9.75157 21.3253 11.6627 21.3253C14.056 21.3253 16.2561 20.4483 17.9508 18.9914L18.3522 19.4077V20.582L25.785 28L28 25.785L20.582 18.3522ZM11.6627 18.3522C7.96112 18.3522 4.97313 15.3642 4.97313 11.6627C4.97313 7.96112 7.96112 4.97313 11.6627 4.97313C15.3642 4.97313 18.3522 7.96112 18.3522 11.6627C18.3522 15.3642 15.3642 18.3522 11.6627 18.3522Z" fill="black"/>
</svg>
