<svg width="20" height="21" viewBox="0 0 20 21" fill="none" xmlns="http://www.w3.org/2000/svg">
<g opacity="0.25" clip-path="url(#clip0_0_6809)">
<path d="M15.2734 10.3127C15.2734 8.92603 14.4258 7.73853 13.2227 7.23853L12.582 8.77759C13.1836 9.02759 13.6055 9.62134 13.6055 10.3167C13.6055 11.0081 13.1836 11.6018 12.582 11.8557L13.2227 13.3948C14.4258 12.887 15.2734 11.6995 15.2734 10.3127ZM14.5039 4.1604L13.8633 5.69946C15.6719 6.45337 16.9414 8.23462 16.9414 10.3127C16.9414 12.3948 15.6719 14.1721 13.8633 14.926L14.5039 16.4651C16.9141 15.4612 18.6055 13.0862 18.6055 10.3127C18.6055 7.53931 16.9141 5.16431 14.5039 4.1604ZM1.94141 6.14478V14.4768H5.27344L11.1055 20.3127V0.312744L5.27344 6.14478H1.94141Z" fill="#281306"/>
</g>
<defs>
<clipPath id="clip0_0_6809">
<rect width="20" height="20" fill="white" transform="translate(0 0.312744)"/>
</clipPath>
</defs>
</svg>
