<svg width="20" height="21" viewBox="0 0 20 21" fill="none" xmlns="http://www.w3.org/2000/svg">
<g opacity="0.25" clip-path="url(#clip0_0_6804)">
<path d="M4.995 10.3127C4.995 13.0737 7.241 15.3197 10.002 15.3197C12.763 15.3197 15.009 13.0737 15.009 10.3127C15.009 7.55174 12.763 5.30574 10.002 5.30574C7.241 5.30574 4.995 7.55174 4.995 10.3127ZM9 17.3127H11V20.3127H9V17.3127ZM9 0.312744H11V3.31274H9V0.312744ZM0 9.31274H3V11.3127H0V9.31274ZM17 9.31274H20V11.3127H17V9.31274ZM3.637 18.0907L2.223 16.6767L4.344 14.5557L5.758 15.9697L3.637 18.0907ZM14.242 4.65674L16.364 2.53474L17.778 3.94874L15.656 6.07074L14.242 4.65674ZM4.344 6.07174L2.223 3.94974L3.638 2.53574L5.758 4.65774L4.344 6.07174ZM17.778 16.6767L16.364 18.0907L14.242 15.9687L15.656 14.5547L17.778 16.6767Z" fill="#281306"/>
</g>
<defs>
<clipPath id="clip0_0_6804">
<rect width="20" height="20" fill="white" transform="translate(0 0.312744)"/>
</clipPath>
</defs>
</svg>
