<svg width="12" height="11" viewBox="0 0 12 11" fill="none" xmlns="http://www.w3.org/2000/svg">
<path d="M0.537828 5.11242L3.22005 6.09517L4.26566 9.40079C4.31112 9.62415 4.58389 9.66882 4.76573 9.53481L6.26595 8.3287C6.40233 8.19469 6.62964 8.19469 6.81149 8.3287L9.4937 10.2495C9.67554 10.3835 9.94831 10.2942 9.99378 10.0709L11.9941 0.690033C12.0395 0.46668 11.8122 0.24333 11.5849 0.332671L0.537828 4.5317C0.26506 4.62105 0.26506 5.02308 0.537828 5.11242ZM4.12928 5.6038L9.40277 2.43219C9.49369 2.38752 9.58462 2.52153 9.4937 2.5662L5.17488 6.54188C5.0385 6.67589 4.90211 6.85457 4.90211 7.07793L4.76573 8.15002C4.76573 8.28403 4.53842 8.3287 4.49296 8.15002L3.94742 6.18451C3.81104 5.96116 3.90197 5.69314 4.12928 5.6038Z" fill="white"/>
</svg>
