<svg width="20" height="21" viewBox="0 0 20 21" fill="none" xmlns="http://www.w3.org/2000/svg">
<g opacity="0.25" clip-path="url(#clip0_0_6799)">
<path d="M15.0925 1.31265H19.1666V3.31246H15.0925V1.31265ZM15.0925 5.31227H19.1666V7.31208H15.0925V5.31227ZM15.0925 9.31189H19.1666V11.3117H15.8564L15.0925 10.4118V9.31189ZM19.1666 13.3115V15.3113H17.1295C17.1295 14.6214 17.0277 13.9415 16.8342 13.3115H19.1666ZM4.90733 1.31265V3.31246H0.833252V1.31265H4.90733ZM4.90733 5.31227V7.31208H0.833252V5.31227H4.90733ZM4.90733 9.31189V10.4118L4.14344 11.3117H0.833252V9.31189H4.90733ZM0.833252 13.3115H3.16566C2.97214 13.9415 2.87029 14.6214 2.87029 15.3113H0.833252V13.3115ZM13.0555 11.3117V3.31246C13.0555 1.65262 11.6907 0.312744 9.99992 0.312744C8.30918 0.312744 6.94436 1.65262 6.94436 3.31246V11.3117C4.69344 12.9715 4.2351 16.1012 5.92584 18.311C7.61658 20.5208 10.8045 20.9708 13.0555 19.3109C15.3064 17.6511 15.7647 14.5214 14.074 12.3116C13.7878 11.9298 13.4444 11.5927 13.0555 11.3117ZM9.99992 2.31255C10.5601 2.31255 11.0184 2.76251 11.0184 3.31246V6.31217H8.9814V3.31246C8.9814 2.76251 9.43973 2.31255 9.99992 2.31255Z" fill="#281306"/>
</g>
<defs>
<clipPath id="clip0_0_6799">
<rect width="20" height="20" fill="white" transform="translate(0 0.312744)"/>
</clipPath>
</defs>
</svg>
