<svg width="21" height="20" viewBox="0 0 21 20" fill="none" xmlns="http://www.w3.org/2000/svg">
<path d="M12.7036 12.0145C12.5876 11.9781 11.8547 11.6612 12.3127 10.3257H12.3061C13.4999 9.14614 14.4122 7.24812 14.4122 5.37949C14.4122 2.50624 12.4206 1 10.106 1C7.78982 1 5.80915 2.50554 5.80915 5.37949C5.80915 7.25582 6.71635 9.16153 7.91744 10.3383C8.38563 11.5164 7.54843 11.9536 7.37341 12.0152C4.94935 12.8561 2.10522 14.3889 2.10522 15.9022V16.4695C2.10522 18.5313 6.27223 19 10.1286 19C13.9907 19 18.1052 18.5313 18.1052 16.4695V15.9022C18.1052 14.3435 15.2472 12.8225 12.7036 12.0145Z" fill="url(#paint0_linear_0_245)"/>
<defs>
<linearGradient id="paint0_linear_0_245" x1="2.10522" y1="10" x2="18.1052" y2="10" gradientUnits="userSpaceOnUse">
<stop stop-color="#DF9241"/>
<stop offset="1" stop-color="#F87023"/>
</linearGradient>
</defs>
</svg>
