<svg width="16" height="10" viewBox="0 0 16 10" fill="none" xmlns="http://www.w3.org/2000/svg">
<path d="M15.5274 8.45666C15.5274 8.39958 15.4677 8.39958 15.4677 8.34251C15.229 7.88589 14.6919 7.31511 13.9757 6.68726C13.6176 6.40187 13.4386 6.17356 13.3192 6.0594C13.1402 5.83109 13.1402 5.65986 13.1998 5.43155C13.2595 5.26032 13.4982 4.97492 13.916 4.46122C14.1547 4.17584 14.2741 4.00461 14.4531 3.83337C15.3484 2.69182 15.7661 1.94981 15.6468 1.60734L15.5871 1.55027C15.5274 1.49319 15.4677 1.43612 15.3484 1.43612C15.229 1.37904 15.05 1.37904 14.8709 1.43612H12.603C12.5434 1.43612 12.5433 1.43612 12.424 1.43612C12.3643 1.43612 12.3046 1.43612 12.3046 1.43612H12.2449H12.1853L12.1256 1.49319C12.0659 1.55027 12.0659 1.55026 12.0659 1.60734C11.8272 2.2352 11.5288 2.74889 11.2304 3.31967C11.0513 3.60506 10.8723 3.89045 10.6932 4.11876C10.5142 4.34707 10.3948 4.5183 10.2754 4.63246C10.1561 4.74661 10.0367 4.80369 9.97704 4.91785C9.91736 4.97492 9.798 5.03201 9.798 4.97493C9.73832 4.97493 9.67863 4.97492 9.67863 4.91785C9.61895 4.86077 9.55928 4.80369 9.4996 4.74661C9.43991 4.68953 9.43991 4.57538 9.38023 4.46122C9.38023 4.34707 9.38023 4.23291 9.38023 4.17584C9.38023 4.11876 9.38023 3.94753 9.38023 3.83337C9.38023 3.66214 9.38023 3.54798 9.38023 3.49091C9.38023 3.31967 9.38023 3.09137 9.38023 2.86306C9.38023 2.63475 9.38023 2.46351 9.38023 2.34935C9.38023 2.2352 9.38023 2.06397 9.38023 1.94981C9.38023 1.77858 9.38023 1.66442 9.38023 1.60734C9.38023 1.55026 9.32056 1.43611 9.32056 1.37903C9.26088 1.32196 9.20119 1.26488 9.1415 1.2078C9.08182 1.15072 8.96246 1.15072 8.90278 1.09365C8.60437 1.03657 8.24629 0.979492 7.82852 0.979492C6.87362 0.979492 6.21712 1.03657 5.9784 1.15073C5.85903 1.2078 5.73967 1.26488 5.67999 1.37903C5.56063 1.49319 5.56062 1.55027 5.62031 1.55027C5.91871 1.60735 6.15744 1.7215 6.2768 1.89273L6.33649 2.00689C6.39617 2.06397 6.39616 2.17812 6.45584 2.34935C6.51552 2.52059 6.51553 2.69182 6.51553 2.92013C6.51553 3.26259 6.51553 3.60506 6.51553 3.83337C6.51553 4.11876 6.45584 4.28999 6.45584 4.46122C6.45584 4.63246 6.39617 4.74662 6.33649 4.80369C6.27681 4.91785 6.2768 4.97493 6.21712 4.97493C6.21712 4.97493 6.21712 5.032 6.15743 5.032C6.09775 5.032 6.03807 5.08908 5.91871 5.08908C5.85903 5.08908 5.73967 5.03201 5.67999 4.97493C5.56063 4.91785 5.44126 4.8037 5.38158 4.68954C5.26222 4.57538 5.14285 4.40415 5.02349 4.17584C4.90413 3.94753 4.72508 3.71922 4.60571 3.37675L4.48636 3.14844C4.42668 3.03429 4.30732 2.80598 4.18796 2.52059C4.06859 2.2352 3.94923 2.00689 3.82986 1.7215C3.77018 1.60735 3.71051 1.55027 3.65083 1.49319H3.59114C3.59114 1.49319 3.53145 1.43612 3.47177 1.43612C3.41209 1.43612 3.35242 1.37903 3.29273 1.37903H1.1442C0.905475 1.37903 0.786114 1.43611 0.726433 1.49319L0.666748 1.55027C0.666748 1.55027 0.666748 1.60734 0.666748 1.66442C0.666748 1.7215 0.666752 1.77857 0.726433 1.89273C1.02484 2.57766 1.38293 3.2626 1.74101 3.94753C2.0991 4.57538 2.4572 5.14616 2.69592 5.5457C2.99433 5.94525 3.23305 6.34479 3.53146 6.68726C3.82986 7.02972 4.0089 7.25803 4.06859 7.37219C4.18795 7.48634 4.24763 7.54342 4.30731 7.6005L4.48636 7.77173C4.60573 7.88589 4.78477 8.05712 5.02349 8.22835C5.26222 8.39959 5.56062 8.57082 5.85903 8.74205C6.15743 8.91328 6.51553 9.02744 6.87362 9.1416C7.29139 9.25575 7.64947 9.31283 8.00756 9.25575H8.90278C9.08183 9.25575 9.2012 9.19867 9.32056 9.08452L9.38023 9.02744C9.38023 8.97036 9.43991 8.97036 9.43991 8.91328C9.43991 8.85621 9.43991 8.79913 9.43991 8.68498C9.43991 8.45667 9.43991 8.28543 9.4996 8.1142C9.55928 7.94297 9.55928 7.82881 9.61897 7.71466C9.67865 7.6005 9.73832 7.54342 9.798 7.48634C9.85768 7.42926 9.91737 7.37219 9.91737 7.37219H9.97704C10.0964 7.31511 10.2755 7.37219 10.3948 7.48634C10.5739 7.6005 10.7529 7.77173 10.8723 7.94296C10.9916 8.1142 11.1707 8.28543 11.4094 8.51374C11.6481 8.74205 11.8272 8.91329 11.9465 8.97036L12.1256 9.08452C12.2449 9.1416 12.3643 9.19868 12.5434 9.25575C12.7224 9.31283 12.8417 9.31283 12.9611 9.31283L14.9903 9.25575C15.1693 9.25575 15.3484 9.19868 15.4677 9.1416C15.5871 9.08452 15.6468 9.02744 15.6468 8.91328C15.6468 8.85621 15.6468 8.74205 15.6468 8.68498C15.5274 8.57082 15.5274 8.51374 15.5274 8.45666Z" fill="white"/>
</svg>
