<svg width="14" height="14" viewBox="0 0 14 14" fill="none" xmlns="http://www.w3.org/2000/svg">
<path d="M11.7154 2.58995C10.461 1.33995 8.78854 0.645508 7.02315 0.645508C3.353 0.645508 0.379709 3.60847 0.379709 7.26588C0.379709 8.42329 0.704913 9.58069 1.2624 10.5529L0.333252 13.9788L3.86403 13.0529C4.83964 13.5622 5.90816 13.84 7.02315 13.84C10.6933 13.84 13.6666 10.877 13.6666 7.21958C13.6201 5.50662 12.9697 3.83995 11.7154 2.58995ZM10.2287 9.62699C10.0893 9.99736 9.43894 10.3677 9.11374 10.414C8.83499 10.4603 8.46333 10.4603 8.09167 10.3677C7.85938 10.2751 7.53418 10.1825 7.16252 9.99736C5.49005 9.30292 4.42152 7.63625 4.32861 7.49736C4.23569 7.40477 3.63174 6.61773 3.63174 5.7844C3.63174 4.95106 4.04986 4.58069 4.18923 4.39551C4.32861 4.21032 4.51444 4.21032 4.65381 4.21032C4.74672 4.21032 4.8861 4.21032 4.97901 4.21032C5.07193 4.21032 5.2113 4.16403 5.35067 4.4881C5.49005 4.81217 5.81525 5.64551 5.86171 5.6918C5.90816 5.7844 5.90816 5.87699 5.86171 5.96958C5.81525 6.06217 5.76879 6.15477 5.67587 6.24736C5.58296 6.33995 5.49004 6.47884 5.44359 6.52514C5.35067 6.61773 5.25776 6.71032 5.35067 6.84921C5.44359 7.0344 5.76879 7.54365 6.27983 8.00662C6.93023 8.56217 7.44127 8.74736 7.6271 8.83995C7.81293 8.93254 7.90584 8.88625 7.99876 8.79366C8.09167 8.70106 8.41688 8.33069 8.50979 8.14551C8.60271 7.96032 8.74208 8.00662 8.88145 8.05292C9.02082 8.09921 9.85706 8.51588 9.99643 8.60847C10.1823 8.70106 10.2752 8.74736 10.3216 8.79366C10.3681 8.93254 10.3681 9.25662 10.2287 9.62699Z" fill="white"/>
</svg>
