<svg width="110" height="111" viewBox="0 0 110 111" fill="none" xmlns="http://www.w3.org/2000/svg">
<path d="M110 55.3125C110 24.9368 85.3757 0.3125 55 0.3125C24.6243 0.3125 0 24.9368 0 55.3125C0 85.6882 24.6243 110.312 55 110.312C85.3757 110.312 110 85.6882 110 55.3125Z" fill="url(#paint0_linear_2133_84)"/>
<g clip-path="url(#clip0_2133_84)">
<path fill-rule="evenodd" clip-rule="evenodd" d="M70.3341 59.0538L73.8251 53.12L80.5651 53.3395L74.7462 59.4367L74.0441 59.3758L75.9461 55.7734L72.5402 59.2453L70.3341 59.0538ZM75.7379 38.7336L78.4704 38.4968L79.7327 41.1424L79.5554 36.1929L77.637 33.5349L74.0811 33.9341L74.153 36.893L75.7379 38.7336ZM53.3757 90.1911L55.4577 85.0137L52.2174 81.0654L56.9138 84.5811L56.4629 90.8787L61.1946 91.9326L72.0703 83.895L75.6956 79.6835L73.298 84.1433L61.8611 95.3289L41.0244 93.2524L23.3132 80.2115L15.6773 64.0685L57.8147 53.4578L61.8292 54.743L63.1927 54.2137L58.4963 51.1896L51.3004 51.7944L46.9828 48.6945L47.6644 42.1923L52.1337 36.2949H53.2699L53.5728 44.0067L59.216 47.2199L63.7607 46.7286L65.9196 45.1787L73.267 41.5119L77.3955 42.3057L73.9109 44.8764L72.737 47.5604L76.8272 50.0555L81.2775 50.3012L84.1938 49.0915L86.0874 45.8404L89.0037 45.1977L89.9128 44.1768L86.7691 43.9125L88.3978 41.2283L91.901 41.0582L80.2361 27.7512L63.5716 20.4931L32.4798 21.6365L47.5512 15.3291L64.6582 15.6141H64.6589L82.6817 25.0044L82.6911 25.0131L93.5759 40.9327L93.5994 40.9953L94.4981 43.6735L92.0337 46.1051L88.7766 52.2291L81.3533 56.0095L75.3865 61.1612L68.1401 60.6281L59.3674 58.1455L34.8923 73.1249L42.8637 87.8497L53.3757 90.1911ZM48.6391 79.0378L51.9188 81.712L53.9403 84.9554L51.2098 87.7L47.1575 87.182L43.7879 83.3247L42.0517 77.8148L37.6709 73.5783L43.4985 72.8852L46.067 77.9119L45.0005 73.2165L49.9906 74.7297L50.655 77.1221L50.8574 75.4713L54.0302 78.1859L54.9142 82.0987L52.2722 80.0054L48.6391 79.0378ZM32.731 42.3576L14.8762 58.9218L16.641 42.8136L30.5415 39.0654L41.0554 33.2895L32.8317 53.054L32.731 42.3576ZM35.9804 32.0419L29.788 36.1435L19.215 36.6159L26.2595 26.8575L39.7678 24.7837L52.3798 22.7423L53.4213 23.4416L44.0287 26.6927L35.9804 32.0419ZM77.7834 75.9038L71.0804 82.989L63.2745 87.0913L57.4036 80.3708L59.2672 71.1559L65.4675 67.305L65.5019 79.4872L68.5333 65.6589L81.6912 60.9873L92.1753 51.6339L92.8082 65.1239L80.8028 70.1873L91.7958 68.5161L87.4846 79.7192L81.8633 80.848L85.6327 81.5858L78.854 88.4183L69.6938 89.7995L74.9529 84.0826L77.7834 75.9038ZM83.7393 37.6746L85.0269 35.2553L79.6488 29.2824H72.5286L71.0136 30.0384L78.74 31.6261L83.7393 37.6746ZM55.0688 32.1177L55.6747 32.8737L66.6583 27.1275L61.2042 24.8593L55.0688 32.1177ZM37.2385 52.8954L43.3468 51.7188L45.0889 41.663L48.8006 33.573L54.7089 26.466L53.0995 26.6361L43.8965 35.6641L37.2385 52.8954Z" fill="white"/>
<path fill-rule="evenodd" clip-rule="evenodd" d="M70.3342 59.0538L73.8252 53.12L80.5652 53.3395L74.7463 59.4367L74.0444 59.3758L75.9462 55.7734L72.5402 59.2453L70.3342 59.0538ZM83.1337 69.833C82.416 69.9546 81.6915 70.0636 80.9627 70.1631L83.1337 69.833ZM80.8096 70.1847C77.7669 70.5928 74.6321 70.8082 71.4278 70.8082C70.0823 70.8082 68.7481 70.7711 67.429 70.6962L68.5334 65.6589L81.6913 60.9873L92.1754 51.6339L92.8082 65.1239L80.8096 70.1847ZM65.4767 70.5573C63.9827 70.4318 62.5066 70.2627 61.0543 70.0458L65.4676 67.3052L65.4767 70.5573ZM46.4016 66.0809C41.9552 64.2744 37.9128 62.0024 34.3992 59.3539L57.8147 53.458L61.8293 54.7432L63.1928 54.2137L58.4964 51.1894L51.3005 51.7944L46.9828 48.6945L47.6643 42.1923L52.1338 36.2949H53.2697L53.5728 44.007L59.216 47.2202L63.7608 46.7286L65.9195 45.1787L73.2673 41.5119L77.3955 42.3055L73.911 44.8764L72.7371 47.5604L76.8273 50.0555L81.2776 50.3012L84.1939 49.0915L86.0875 45.8402L89.0038 45.1977L89.9128 44.1768L86.7692 43.9122L88.3979 41.2283L91.9014 41.0582L80.2361 27.7515L63.5714 20.4928L32.4799 21.6365L47.5513 15.3291L64.6583 15.6141H64.659L82.6818 25.0044L82.6912 25.0131L93.5762 40.9327L93.5995 40.9956L94.4985 43.6735L92.0338 46.1051L88.7767 52.2294L81.3533 56.0098L75.3868 61.1612L68.1402 60.6281L59.3675 58.1452L46.4016 66.0809ZM24.9936 49.5359C23.3341 47.0299 22.046 44.3683 21.1779 41.5903L30.5416 39.0654L41.0555 33.2895L32.8318 53.0537L32.7313 42.3576L24.9936 49.5359ZM20.097 36.5765C20.0551 36.233 20.02 35.8885 19.9902 35.5425L26.2596 26.8575L39.7679 24.7837L52.3799 22.7423L53.4214 23.4416L44.0286 26.6927L35.9805 32.0419L29.7881 36.1437L20.097 36.5765ZM75.738 38.7336L78.4704 38.4971L79.7328 41.1424L79.5552 36.1932L77.6371 33.5349L74.0812 33.9341L74.1531 36.8932L75.738 38.7336ZM83.7394 37.6749L85.027 35.2553L79.6489 29.2824H72.5289L71.0137 30.0384L78.7399 31.6261L83.7394 37.6749ZM55.0688 32.1177L55.6748 32.8737L66.6581 27.1277L61.2043 24.8593L55.0688 32.1177ZM37.2386 52.8954L43.3469 51.7186L45.089 41.6632L48.8007 33.573L54.709 26.466L53.0993 26.6363L43.8966 35.6641L37.2386 52.8954Z" fill="white"/>
</g>
<defs>
<linearGradient id="paint0_linear_2133_84" x1="110" y1="5.8125" x2="-9.6969" y2="18.4472" gradientUnits="userSpaceOnUse">
<stop stop-color="#3BC52C"/>
<stop offset="1" stop-color="#88C74D"/>
</linearGradient>
<clipPath id="clip0_2133_84">
<rect width="80" height="80" fill="white" transform="translate(15 15.3125)"/>
</clipPath>
</defs>
</svg>
